<?xml version="1.0" encoding="UTF-8"?><svg id="logo" xmlns="http://www.w3.org/2000/svg" viewBox="0 0 553.5 553.5"><defs><style>.cls-1{stroke:#004a4c;stroke-width:30px;}.cls-1,.cls-2,.cls-3,.cls-4,.cls-5,.cls-6{stroke-miterlimit:10;}.cls-1,.cls-6{fill:none;}.cls-2{fill:#0d9395;stroke-width:18px;}.cls-2,.cls-3{stroke:#004b4e;}.cls-3{fill:#f5c95c;stroke-width:20px;}.cls-4{fill:#004c50;}.cls-4,.cls-5,.cls-6{stroke:#004c50;}.cls-5{fill:#f08729;}.cls-5,.cls-6{stroke-width:12px;}</style></defs><circle class="cls-3" cx="277.61" cy="273.89" r="235.27"/><path class="cls-5" d="M362.91,443.3c0-46.79-37.93-84.73-84.73-84.73s-84.73,37.93-84.73,84.73"/><path class="cls-2" d="M360.45,494.15c-25.77,9.71-53.69,15.01-82.85,15.01-66.37,0-126.32-27.48-169.07-71.69,14.82-1.71,29.9-2.59,45.18-2.59,41.24,0,80.99,6.4,118.3,18.27,31.4,9.98,61.06,23.84,88.44,41Z"/><path class="cls-2" d="M448.14,435.96s-.01.02-.03.02c-24.22,25.5-54.12,45.56-87.66,58.17-27.38-17.16-57.04-31.02-88.44-41,39.27-13.3,81.34-20.51,125.1-20.51,17.3,0,34.33,1.13,51.03,3.32Z"/><circle class="cls-4" cx="278.19" cy="217.76" r="19.97"/><circle class="cls-4" cx="398.55" cy="185.37" r="19.97"/><circle class="cls-4" cx="230.6" cy="284.05" r="19.97"/><circle class="cls-4" cx="333.03" cy="323.98" r="19.97"/><line class="cls-6" x1="278.19" y1="217.76" x2="278.19" y2="358.7"/><line class="cls-6" x1="398.55" y1="185.37" x2="398.55" y2="321.85"/><line class="cls-6" x1="352.81" y1="228.27" x2="278.19" y2="311.15"/><line class="cls-6" x1="332.73" y1="323.17" x2="298.15" y2="361.57"/><line class="cls-6" x1="229.81" y1="284.76" x2="278.5" y2="338.83"/><path class="cls-1" d="M99.55,427.67c19.01-35.73,163.37-311.85,178.73-339.54.51-.31.95.44,1.9,2.2,51.89,98.05,127.02,240.19,177.3,335.22"/></svg>